<svg width="18" height="24" viewBox="0 0 18 24" fill="none" xmlns="http://www.w3.org/2000/svg">
<path d="M4.8001 13.4C5.1714 13.4 5.5275 13.2525 5.79005 12.99C6.0526 12.7274 6.2001 12.3714 6.2001 12C6.2001 11.6287 6.0526 11.2727 5.79005 11.0101C5.5275 10.7475 5.1714 10.6 4.8001 10.6C4.42879 10.6 4.0727 10.7475 3.81015 11.0101C3.5476 11.2727 3.4001 11.6287 3.4001 12C3.4001 12.3714 3.5476 12.7274 3.81015 12.99C4.0727 13.2525 4.42879 13.4 4.8001 13.4ZM0.600098 3.60005C0.600098 2.85744 0.895097 2.14525 1.4202 1.62015C1.9453 1.09505 2.65749 0.800049 3.4001 0.800049H14.6001C15.3427 0.800049 16.0549 1.09505 16.58 1.62015C17.1051 2.14525 17.4001 2.85744 17.4001 3.60005V20.4C17.4001 21.1427 17.1051 21.8548 16.58 22.3799C16.0549 22.905 15.3427 23.2 14.6001 23.2H3.4001C2.65749 23.2 1.9453 22.905 1.4202 22.3799C0.895097 21.8548 0.600098 21.1427 0.600098 20.4V3.60005ZM3.4001 21.8H14.6001C14.9714 21.8 15.3275 21.6525 15.59 21.39C15.8526 21.1274 16.0001 20.7714 16.0001 20.4V3.60005C16.0001 3.22875 15.8526 2.87265 15.59 2.6101C15.3275 2.34755 14.9714 2.20005 14.6001 2.20005H3.4001C3.02879 2.20005 2.6727 2.34755 2.41015 2.6101C2.1476 2.87265 2.0001 3.22875 2.0001 3.60005V20.4C2.0001 20.7714 2.1476 21.1274 2.41015 21.39C2.6727 21.6525 3.02879 21.8 3.4001 21.8Z" fill="#585858"/>
</svg>
